<?xml version="1.0" standalone="no"?><!DOCTYPE svg PUBLIC "-//W3C//DTD SVG 1.1//EN" "http://www.w3.org/Graphics/SVG/1.1/DTD/svg11.dtd"><svg t="1529232518284" class="icon" style="" viewBox="0 0 1024 1024" version="1.1" xmlns="http://www.w3.org/2000/svg" p-id="957" xmlns:xlink="http://www.w3.org/1999/xlink" width="200" height="200"><defs><style type="text/css"></style></defs><path d="M512 7.13007408C233.17587437 7.13007408 7.13007408 233.17587437 7.13007408 512s226.0458003 504.86992592 504.86992592 504.86992592 504.86992592-226.0458003 504.86992592-504.86992592S790.82412563 7.13007408 512 7.13007408zM512 978.03377778C254.61342815 978.03377778 45.96622222 769.38657185 45.96622222 512S254.61342815 45.96622222 512 45.96622222s466.03377778 208.64720592 466.03377778 466.03377778S769.38657185 978.03377778 512 978.03377778z" fill="#8a8a8a" p-id="958"></path><path d="M832.39822222 492.58192592L531.41807408 492.58192592 531.41807408 191.60177778c0-5.35938845-4.34964859-9.70903703-9.70903705-9.70903703l-19.41807406 0c-5.35938845 0-9.70903703 4.34964859-9.70903705 9.70903703L492.58192592 492.58192592 191.60177778 492.58192592c-5.35938845 0-9.70903703 4.34964859-9.70903703 9.70903705l0 19.41807406c0 5.35938845 4.34964859 9.70903703 9.70903703 9.70903705L492.58192592 531.41807408l0 300.98014814c0 5.33997037 4.34964859 9.70903703 9.70903705 9.70903703l19.41807406 0c5.35938845 0 9.70903703-4.36906667 9.70903705-9.70903703L531.41807408 531.41807408l300.98014814 0c5.33997037 0 9.70903703-4.34964859 9.70903703-9.70903705l0-19.41807406C842.10725925 496.93157452 837.73819259 492.58192592 832.39822222 492.58192592z" fill="#8a8a8a" p-id="959"></path></svg>