<?xml version="1.0" standalone="no"?><!DOCTYPE svg PUBLIC "-//W3C//DTD SVG 1.1//EN" "http://www.w3.org/Graphics/SVG/1.1/DTD/svg11.dtd"><svg t="1529316219765" class="icon" style="" viewBox="0 0 1024 1024" version="1.1" xmlns="http://www.w3.org/2000/svg" p-id="983" xmlns:xlink="http://www.w3.org/1999/xlink" width="200" height="200"><defs><style type="text/css"></style></defs><path d="M18.08170674 961.48835893c-12.06302544 12.47690945-11.72425915 32.36985468 0.75117742 44.42993433 12.47838235 12.06302544 32.37132758 11.72425915 44.43140722-0.75117742l911.23269276-942.65400187c12.06155252-12.47838235 11.72425915-32.37132758-0.75265029-44.43140723-12.47690945-12.06302544-32.36985468-11.72425915-44.43140724 0.75117742l-911.23121987 942.65400187z" fill="#707070" p-id="984"></path><path d="M929.31292661 1005.16564294c12.06302544 12.47690945 31.95449777 12.81420285 44.43140724 0.75265032 12.47690945-12.06007964 12.81420285-31.95302486 0.75265029-44.42993433l-911.23269276-942.65400187c-12.06007964-12.47690945-31.95302486-12.81420285-44.42993432-0.75265032-12.47690945 12.06007964-12.81420285 31.95302486-0.75265032 44.42993433l911.23121987 942.65400187z" fill="#707070" p-id="985"></path></svg>